<?xml version="1.0" encoding="utf-8"?>
<!-- Generator: Adobe Illustrator 25.4.1, SVG Export Plug-In . SVG Version: 6.00 Build 0)  -->
<svg version="1.1" id="Capa_1" xmlns="http://www.w3.org/2000/svg" xmlns:xlink="http://www.w3.org/1999/xlink" x="0px" y="0px"
	 width="10px" height="6.2px" viewBox="0 0 10 6.2" style="enable-background:new 0 0 10 6.2;" xml:space="preserve">
<style type="text/css">
	.st0{fill:#FFFFFF;}
	.st1{fill:#8DD816;}
</style>
<g>
	<path class="st0" d="M0.339,4.196h0.209v0.612h0.331v0.188h-0.54V4.196z"/>
	<path class="st0" d="M1.577,4.931H1.295L1.266,4.996h-0.22l0.357-0.801h0.066l0.357,0.801h-0.22L1.577,4.931z M1.437,4.584
		L1.367,4.766h0.137L1.437,4.584z"/>
	<path class="st0" d="M3.628,5.261C3.586,5.271,3.536,5.277,3.479,5.277c-0.221,0-0.419-0.092-0.548-0.279
		C2.895,5.009,2.856,5.014,2.814,5.014c-0.231,0.004-0.43-0.181-0.425-0.409C2.384,4.379,2.583,4.191,2.814,4.196
		c0.23-0.005,0.432,0.183,0.427,0.409c0,0.121-0.051,0.229-0.139,0.305c0.104,0.133,0.229,0.193,0.419,0.193
		c0.028,0,0.062-0.001,0.107-0.004V5.261z M3.031,4.605c0-0.13-0.093-0.22-0.215-0.22c-0.127,0-0.215,0.09-0.215,0.22
		c0,0.066,0.02,0.12,0.06,0.16c0.039,0.039,0.092,0.06,0.156,0.06C2.937,4.825,3.031,4.737,3.031,4.605z"/>
	<path class="st0" d="M3.488,4.196h0.209v0.477c0,0.091,0.059,0.147,0.146,0.147s0.146-0.056,0.146-0.147V4.196h0.209v0.461
		c0,0.211-0.152,0.354-0.354,0.354c-0.205,0-0.354-0.141-0.354-0.354V4.196z"/>
	<path class="st0" d="M4.474,4.196h0.556v0.188H4.682v0.11H4.93v0.175H4.682v0.139h0.361v0.188h-0.57V4.196z"/>
	<path class="st0" d="M5.669,4.996H5.295V4.196h0.289c0.154,0,0.271,0.097,0.271,0.237c0,0.053-0.016,0.098-0.049,0.135
		c0.084,0.034,0.133,0.099,0.133,0.192C5.939,4.897,5.823,4.996,5.669,4.996z M5.495,4.371v0.141H5.57c0.05,0,0.08-0.028,0.08-0.07
		c0-0.042-0.03-0.07-0.08-0.07H5.495z M5.655,4.679h-0.16V4.82h0.16c0.05,0,0.08-0.023,0.08-0.07S5.705,4.679,5.655,4.679z"/>
	<path class="st0" d="M6.649,4.996L6.468,4.747H6.382v0.249H6.173V4.196h0.314c0.178,0,0.309,0.109,0.309,0.275
		c0,0.098-0.047,0.18-0.126,0.228l0.211,0.297H6.649z M6.382,4.565h0.107c0.058,0,0.096-0.038,0.096-0.095
		c0-0.057-0.038-0.093-0.096-0.093H6.382V4.565z"/>
	<path class="st0" d="M7.554,4.931H7.271L7.243,4.996h-0.22L7.38,4.196h0.066l0.357,0.801h-0.22L7.554,4.931z M7.413,4.584
		L7.344,4.766h0.137L7.413,4.584z"/>
	<path class="st0" d="M8.007,4.196h0.279c0.245-0.002,0.44,0.158,0.437,0.398C8.726,4.83,8.531,5,8.286,4.996H8.007V4.196z
		 M8.284,4.808c0.131,0,0.224-0.082,0.224-0.215c0-0.136-0.092-0.209-0.224-0.209H8.215v0.423H8.284z"/>
	<path class="st0" d="M9.412,4.931H9.13L9.101,4.996h-0.22l0.357-0.801h0.066l0.357,0.801h-0.22L9.412,4.931z M9.272,4.584
		L9.203,4.766H9.34L9.272,4.584z"/>
</g>
<g>
	<path class="st1" d="M3.1,5.756h0.151c0.083,0,0.14,0.052,0.14,0.127c0,0.074-0.057,0.127-0.14,0.127H3.166v0.16H3.1V5.756z
		 M3.249,5.951c0.047,0,0.073-0.027,0.073-0.068c0-0.041-0.026-0.068-0.073-0.068H3.166v0.136H3.249z"/>
	<path class="st1" d="M3.788,6.101H3.602L3.573,6.17H3.502l0.182-0.421h0.023L3.889,6.17H3.818L3.788,6.101z M3.696,5.873
		l-0.07,0.171h0.138L3.696,5.873z"/>
	<path class="st1" d="M4.341,6.17L4.223,6.01H4.147v0.16H4.081V5.756h0.151c0.083,0,0.14,0.052,0.14,0.127
		c0,0.055-0.03,0.097-0.08,0.117l0.124,0.17H4.341z M4.147,5.951h0.083c0.046,0,0.073-0.028,0.073-0.068
		c0-0.041-0.028-0.068-0.073-0.068H4.147V5.951z"/>
	<path class="st1" d="M4.785,5.749c0.076,0,0.142,0.037,0.177,0.095l-0.05,0.037C4.883,5.836,4.84,5.81,4.786,5.81
		c-0.085,0-0.149,0.065-0.149,0.153c0,0.088,0.065,0.153,0.149,0.153c0.055,0,0.097-0.026,0.127-0.071l0.05,0.037
		c-0.035,0.058-0.1,0.095-0.177,0.095c-0.118,0.002-0.22-0.095-0.217-0.214C4.565,5.845,4.667,5.747,4.785,5.749z"/>
	<path class="st1" d="M5.167,5.756h0.272v0.06H5.234v0.106h0.155v0.058H5.234V6.11h0.213v0.06h-0.28V5.756z"/>
	<path class="st1" d="M5.65,5.756h0.066V6.11h0.189v0.06H5.65V5.756z"/>
	<path class="st1" d="M6.346,6.101H6.16L6.131,6.17H6.06l0.182-0.421h0.023L6.447,6.17H6.376L6.346,6.101z M6.253,5.873l-0.07,0.171
		h0.138L6.253,5.873z"/>
	<path class="st1" d="M6.653,6.051c0.028,0.04,0.061,0.066,0.108,0.066c0.043,0,0.071-0.023,0.071-0.058
		c0-0.029-0.018-0.042-0.061-0.062L6.726,5.976C6.666,5.949,6.63,5.917,6.63,5.862c0-0.068,0.059-0.112,0.13-0.112
		c0.058,0,0.108,0.029,0.133,0.074L6.847,5.859c-0.022-0.033-0.052-0.05-0.087-0.05c-0.035,0-0.063,0.018-0.063,0.05
		C6.7,5.892,6.714,5.897,6.755,5.918l0.046,0.021C6.869,5.97,6.9,6.003,6.9,6.057c0,0.072-0.059,0.12-0.139,0.12
		c-0.068,0-0.124-0.034-0.156-0.09L6.653,6.051z"/>
</g>
<path class="st1" d="M0.357,3.654c0,0,0.769-0.856,0.96-0.98s0.68-0.522,0.767-0.493c0.087,0.029,0.276-0.008,0.42-0.248
	C2.65,1.692,3.114,1.173,3.237,1.21C3.36,1.247,3.52,1.729,3.664,1.692c0.145-0.037,1.362-1.723,1.68-1.667s0.521,0.908,1.028,1.26
	c0,0,0.175,0.019,0.319,0.074c0.144,0.056,0.234,0.454,0.405,0.454s0.174-0.065,0.261-0.084C7.445,1.71,7.635,1.155,7.844,1.192
	c0.209,0.037,1.614,1.926,1.817,2.315c0,0-0.065,0.004-0.125-0.013c-0.06-0.017-0.299-0.382-0.385-0.45
	C9.066,2.976,8.621,2.9,8.641,2.942c0.02,0.042,0.345,0.356,0.355,0.492S8.803,3.105,8.42,2.917C8.037,2.73,7.898,2.162,7.672,2.077
	C7.447,1.992,7.208,1.966,7.208,2c0,0.034,0.365,0.619,0.425,0.738c0.06,0.119-0.153-0.127-0.272-0.297S7.142,2.136,7.075,2.102
	C7.009,2.068,6.876,1.933,6.87,1.89S6.823,1.474,6.618,1.44C6.412,1.407,6.485,1.542,6.366,1.534
	C6.246,1.525,5.994,1.118,5.861,0.931C5.729,0.745,5.45,0.236,5.337,0.261C5.224,0.287,5.291,0.643,5.37,0.711
	s0.239,0.213,0.259,0.365c0.02,0.152,0.066,0.347,0.126,0.407c0.06,0.059,0.073,0.136,0,0.119C5.682,1.585,5.357,0.974,5.258,0.94
	c-0.1-0.034-0.139,0.01-0.146,0.136s0.046,0.246,0.046,0.33S5.145,1.661,5.41,1.771c0.265,0.11,0.378,0.577,0.504,0.687
	C6.04,2.569,6.3,2.712,6.352,2.815c0.052,0.103-0.212-0.11-0.365-0.119S5.642,2.433,5.576,2.399C5.51,2.365,5.384,2.34,5.37,2.459
	C5.357,2.577,5.393,2.654,5.541,2.73c0.148,0.076-0.004,0.178,0.175,0.305s0.312,0.518,0.401,0.577
	c0.09,0.059-0.116,0.051-0.189-0.102C5.855,3.358,5.622,3.154,5.463,3.095C5.304,3.035,5.093,2.908,5.009,2.866
	C4.926,2.823,4.76,2.739,4.714,2.806c-0.046,0.068,0.02,0.255-0.027,0.263S4.501,3.002,4.316,2.713
	C4.13,2.425,3.888,2.26,3.813,2.181C3.738,2.102,3.665,2.094,3.599,2.06C3.533,2.026,3.367,1.737,3.301,1.754
	C3.234,1.771,3.446,2.196,3.553,2.391c0.106,0.195,0.027,0.288,0.139,0.467c0.113,0.178-0.027,0.144-0.159-0.102
	C3.4,2.509,3.247,2.442,3.188,2.442S2.982,2.34,2.922,2.323C2.863,2.306,2.783,2.28,2.737,2.306C2.69,2.331,2.644,2.419,2.823,2.549
	s0.073,0.249,0.186,0.3C3.121,2.9,3.307,3.256,3.38,3.286c0.073,0.03,0.192,0.064,0.252,0.191s0.119,0.263,0.04,0.246
	c-0.08-0.017,0.059-0.288-0.435-0.314c-0.494-0.025-0.58-0.28-0.766-0.39c-0.186-0.11-0.122-0.305-0.386-0.305s-0.324,0.068-0.43,0
	c-0.106-0.068-0.239,0.119-0.146,0.17c0.093,0.051,0.166,0.119,0.206,0.161s0.179,0.119,0.172,0.178
	C1.881,3.281,1.655,3.078,1.556,3.078S1.337,2.84,1.191,3.027S0.928,3.26,0.799,3.286S0.503,3.712,0.357,3.654z"/>
</svg>
