<?xml version="1.0" encoding="utf-8"?>
<!-- Generator: Adobe Illustrator 25.4.1, SVG Export Plug-In . SVG Version: 6.00 Build 0)  -->
<svg version="1.1" id="Capa_1" xmlns="http://www.w3.org/2000/svg" xmlns:xlink="http://www.w3.org/1999/xlink" x="0px" y="0px"
	 width="10px" height="6.2px" viewBox="0 0 10 6.2" style="enable-background:new 0 0 10 6.2;" xml:space="preserve">
<style type="text/css">
	.st0{opacity:0.3;fill:#8DD816;}
	.st1{opacity:0.3;fill:#3DC94A;}
	.st2{fill:#194439;}
</style>
<path class="st0" d="M9.424,3.155c0-0.904-2.173-2.757-2.921-2.686C5.368,0.578,1.572,2.376,1.769,3.639
	C1.914,4.565,9.424,5.522,9.424,3.155z"/>
<path class="st1" d="M5.79,3.513c0.028-0.52-1.96-1.929-2.979-2.497c-0.735-0.41-2.546,0.431-2.036,2.4S5.724,4.724,5.79,3.513z"/>
<g>
	<path class="st2" d="M0.365,4.189h0.207v0.609h0.329v0.187H0.365V4.189z"/>
	<path class="st2" d="M1.597,4.92H1.316L1.288,4.985H1.068l0.355-0.796h0.065l0.355,0.796H1.625L1.597,4.92z M1.457,4.575
		L1.388,4.757h0.136L1.457,4.575z"/>
	<path class="st2" d="M3.636,5.248C3.594,5.259,3.544,5.265,3.488,5.265c-0.22,0-0.416-0.092-0.545-0.277
		C2.907,4.998,2.868,5.003,2.827,5.003c-0.23,0.004-0.427-0.18-0.422-0.407C2.399,4.371,2.597,4.185,2.827,4.189
		c0.228-0.005,0.43,0.182,0.425,0.407c0,0.12-0.051,0.227-0.138,0.303C3.217,5.032,3.341,5.091,3.53,5.091
		c0.027,0,0.062-0.001,0.106-0.004V5.248z M3.042,4.596c0-0.13-0.093-0.219-0.214-0.219c-0.126,0-0.214,0.089-0.214,0.219
		c0,0.065,0.02,0.119,0.059,0.159c0.039,0.039,0.092,0.059,0.155,0.059C2.949,4.815,3.042,4.727,3.042,4.596z"/>
	<path class="st2" d="M3.497,4.189h0.207v0.474c0,0.09,0.059,0.146,0.145,0.146c0.086,0,0.145-0.056,0.145-0.146V4.189h0.207v0.458
		C4.201,4.857,4.051,5,3.849,5C3.645,5,3.497,4.86,3.497,4.648V4.189z"/>
	<path class="st2" d="M4.477,4.189h0.552v0.187H4.684v0.11H4.93V4.66H4.684v0.139h0.359v0.187H4.477V4.189z"/>
	<path class="st2" d="M5.665,4.985H5.293V4.189H5.58c0.153,0,0.269,0.096,0.269,0.235c0,0.053-0.016,0.098-0.048,0.134
		c0.083,0.034,0.133,0.099,0.133,0.191C5.934,4.886,5.818,4.985,5.665,4.985z M5.492,4.364v0.14h0.075c0.049,0,0.08-0.028,0.08-0.07
		c0-0.042-0.03-0.07-0.08-0.07H5.492z M5.651,4.67H5.492v0.14h0.159c0.049,0,0.08-0.023,0.08-0.07
		C5.731,4.693,5.701,4.67,5.651,4.67z"/>
	<path class="st2" d="M6.639,4.985L6.46,4.738H6.374v0.247H6.167V4.189h0.312c0.177,0,0.308,0.109,0.308,0.274
		c0,0.098-0.047,0.179-0.125,0.227l0.21,0.295H6.639z M6.374,4.557H6.48c0.058,0,0.095-0.037,0.095-0.094
		c0-0.057-0.037-0.093-0.095-0.093H6.374V4.557z"/>
	<path class="st2" d="M7.539,4.92H7.258L7.23,4.985H7.011l0.355-0.796h0.065l0.355,0.796H7.567L7.539,4.92z M7.399,4.575L7.33,4.757
		h0.136L7.399,4.575z"/>
	<path class="st2" d="M7.989,4.189h0.277C8.51,4.187,8.705,4.346,8.701,4.585c0.004,0.235-0.191,0.404-0.434,0.4H7.989V4.189z
		 M8.266,4.798c0.13,0,0.223-0.082,0.223-0.213c0-0.135-0.092-0.207-0.223-0.207H8.197v0.421H8.266z"/>
	<path class="st2" d="M9.387,4.92H9.106L9.078,4.985H8.859l0.355-0.796h0.065l0.355,0.796H9.415L9.387,4.92z M9.247,4.575
		L9.179,4.757h0.136L9.247,4.575z"/>
</g>
<g>
	<path class="st2" d="M3.11,5.741h0.15c0.083,0,0.14,0.052,0.14,0.126c0,0.074-0.057,0.126-0.14,0.126H3.176v0.159H3.11V5.741z
		 M3.259,5.935c0.047,0,0.073-0.027,0.073-0.067c0-0.04-0.026-0.068-0.073-0.068H3.176v0.135H3.259z"/>
	<path class="st2" d="M3.795,6.084H3.61L3.581,6.152h-0.07l0.181-0.418h0.022l0.181,0.418H3.825L3.795,6.084z M3.703,5.857
		l-0.069,0.17h0.138L3.703,5.857z"/>
	<path class="st2" d="M4.345,6.152L4.228,5.993H4.152v0.159H4.086V5.741h0.15c0.083,0,0.14,0.052,0.14,0.126
		c0,0.054-0.03,0.097-0.079,0.116L4.42,6.152H4.345z M4.152,5.935h0.083c0.045,0,0.073-0.027,0.073-0.067
		c0-0.04-0.027-0.068-0.073-0.068H4.152V5.935z"/>
	<path class="st2" d="M4.786,5.734c0.075,0,0.141,0.037,0.176,0.095l-0.05,0.037C4.883,5.82,4.841,5.795,4.787,5.795
		c-0.084,0-0.148,0.065-0.148,0.152c0,0.087,0.064,0.152,0.148,0.152c0.054,0,0.097-0.026,0.126-0.071l0.05,0.037
		c-0.035,0.058-0.1,0.095-0.176,0.095C4.669,6.161,4.567,6.064,4.57,5.947C4.567,5.829,4.669,5.732,4.786,5.734z"/>
	<path class="st2" d="M5.167,5.741h0.27V5.8H5.233v0.105h0.154v0.057H5.233v0.13h0.212v0.059H5.167V5.741z"/>
	<path class="st2" d="M5.646,5.741h0.066v0.352H5.9v0.059H5.646V5.741z"/>
	<path class="st2" d="M6.338,6.084H6.153L6.124,6.152h-0.07l0.181-0.418h0.022l0.181,0.418H6.368L6.338,6.084z M6.246,5.857
		l-0.069,0.17h0.138L6.246,5.857z"/>
	<path class="st2" d="M6.643,6.035C6.671,6.074,6.704,6.1,6.751,6.1c0.042,0,0.071-0.022,0.071-0.057
		c0-0.029-0.017-0.042-0.06-0.062L6.716,5.96C6.657,5.932,6.62,5.901,6.62,5.846c0-0.067,0.059-0.112,0.13-0.112
		c0.058,0,0.107,0.029,0.133,0.074L6.837,5.843c-0.022-0.032-0.052-0.05-0.087-0.05c-0.035,0-0.062,0.017-0.062,0.05
		C6.69,5.876,6.705,5.881,6.745,5.902l0.046,0.021C6.858,5.954,6.89,5.986,6.89,6.04c0,0.072-0.059,0.119-0.138,0.119
		c-0.067,0-0.123-0.034-0.155-0.089L6.643,6.035z"/>
</g>
<path class="st2" d="M0.384,3.651c0,0,0.764-0.851,0.955-0.975s0.676-0.519,0.763-0.49C2.189,2.215,2.376,2.179,2.52,1.939
	s0.605-0.755,0.727-0.718C3.37,1.258,3.528,1.737,3.672,1.7c0.144-0.037,1.354-1.713,1.671-1.658s0.518,0.902,1.023,1.252
	c0,0,0.174,0.018,0.318,0.074C6.826,1.423,6.915,1.82,7.085,1.82s0.173-0.065,0.259-0.083C7.431,1.718,7.62,1.166,7.828,1.202
	c0.208,0.037,1.605,1.915,1.806,2.302c0,0-0.064,0.004-0.124-0.013c-0.059-0.017-0.297-0.38-0.383-0.447
	C9.042,2.977,8.6,2.901,8.62,2.943s0.343,0.354,0.353,0.489c0.01,0.135-0.192-0.327-0.573-0.514C8.02,2.732,7.881,2.167,7.657,2.083
	c-0.224-0.084-0.462-0.11-0.462-0.076c0,0.034,0.363,0.616,0.422,0.734s-0.152-0.127-0.27-0.295S7.129,2.142,7.064,2.108
	S6.866,1.939,6.859,1.897C6.852,1.855,6.813,1.484,6.608,1.45S6.476,1.551,6.358,1.543S5.988,1.129,5.856,0.944
	S5.447,0.252,5.335,0.277c-0.112,0.025-0.046,0.38,0.033,0.447s0.237,0.212,0.257,0.363s0.066,0.345,0.125,0.404
	s0.073,0.135,0,0.118C5.678,1.593,5.355,0.986,5.256,0.952C5.157,0.919,5.118,0.962,5.111,1.088
	C5.104,1.214,5.157,1.332,5.157,1.416c0,0.084-0.013,0.253,0.251,0.363c0.264,0.11,0.376,0.574,0.501,0.683
	c0.125,0.11,0.383,0.252,0.435,0.354s-0.211-0.11-0.363-0.118C5.83,2.69,5.639,2.437,5.573,2.403
	C5.507,2.369,5.381,2.344,5.368,2.462C5.355,2.58,5.39,2.656,5.538,2.732c0.147,0.076-0.004,0.177,0.174,0.304
	S6.021,3.55,6.11,3.609S5.995,3.66,5.922,3.508C5.85,3.356,5.619,3.154,5.461,3.095S5.092,2.909,5.009,2.867
	S4.761,2.741,4.715,2.808C4.669,2.876,4.735,3.061,4.689,3.07S4.504,3.002,4.319,2.715c-0.185-0.287-0.426-0.451-0.5-0.529
	c-0.074-0.078-0.147-0.087-0.213-0.12C3.541,2.032,3.376,1.745,3.31,1.762C3.244,1.779,3.455,2.201,3.561,2.395
	c0.106,0.194,0.026,0.287,0.139,0.464c0.112,0.177-0.026,0.143-0.158-0.101C3.409,2.513,3.257,2.445,3.198,2.445
	S2.994,2.344,2.934,2.327C2.875,2.31,2.796,2.285,2.75,2.31C2.703,2.336,2.657,2.423,2.835,2.552C3.013,2.682,2.908,2.8,3.02,2.85
	c0.112,0.051,0.297,0.405,0.369,0.434c0.073,0.03,0.191,0.063,0.251,0.19s0.119,0.261,0.04,0.245C3.6,3.702,3.738,3.432,3.247,3.407
	S2.67,3.129,2.486,3.019c-0.185-0.11-0.121-0.304-0.384-0.304s-0.322,0.067-0.427,0C1.569,2.648,1.437,2.833,1.529,2.884
	s0.165,0.118,0.205,0.16s0.178,0.118,0.172,0.177s-0.231-0.143-0.33-0.143S1.358,2.842,1.213,3.027
	C1.068,3.213,0.951,3.259,0.823,3.285S0.528,3.709,0.384,3.651z"/>
</svg>
